<?xml version="1.0" encoding="UTF-8" standalone="no"?>
<svg
   viewBox="0.0 0.0 348.0 348.0"
   fill="none"
   version="1.1"
   id="svg2"
   sodipodi:docname="Nim.svg"
   inkscape:version="1.3.2 (091e20e, 2023-11-25)"
   xmlns:inkscape="http://www.inkscape.org/namespaces/inkscape"
   xmlns:sodipodi="http://sodipodi.sourceforge.net/DTD/sodipodi-0.dtd"
   xmlns="http://www.w3.org/2000/svg"
   xmlns:svg="http://www.w3.org/2000/svg">
  <defs
     id="defs2" />
  <sodipodi:namedview
     id="namedview2"
     pagecolor="#505050"
     bordercolor="#eeeeee"
     borderopacity="1"
     inkscape:showpageshadow="0"
     inkscape:pageopacity="0"
     inkscape:pagecheckerboard="0"
     inkscape:deskcolor="#505050"
     inkscape:zoom="2.4856322"
     inkscape:cx="174"
     inkscape:cy="173.79884"
     inkscape:window-width="1728"
     inkscape:window-height="1387"
     inkscape:window-x="1728"
     inkscape:window-y="25"
     inkscape:window-maximized="0"
     inkscape:current-layer="svg2" />
  <path
     d="M5.079 5.776h336.913v337.67H5.08z"
     stroke-width="2"
     stroke="#000"
     id="path1" />
  <path
     d="M282.734 40.554c0-8.376 6.966-15.165 15.56-15.165 4.126 0 8.084 1.597 11.001 4.441 2.918 2.844 4.558 6.702 4.558 10.724 0 8.376-6.966 15.165-15.56 15.165-8.593 0-15.559-6.79-15.559-15.165z"
     stroke-width="2"
     stroke="#000"
     id="path2" />
  <g
     transform="matrix(1.2094799,0,0,1.0281448,37.298947,39.648245)"
     id="g2">
    <rect
       width="6"
       height="40"
       stroke="#000000"
       stroke-width="2"
       id="rect2"
       x="0"
       y="0" />
    <ellipse
       cx="3"
       cy="-6"
       rx="3"
       ry="6"
       stroke="#000000"
       stroke-width="2"
       id="ellipse2" />
  </g>
  <g
     transform="matrix(1.2094799,0,0,1.0281448,51.812706,39.648245)"
     id="g3">
    <rect
       width="6"
       height="40"
       stroke="#000000"
       stroke-width="2"
       id="rect3"
       x="0"
       y="0" />
    <ellipse
       cx="3"
       cy="-6"
       rx="3"
       ry="6"
       stroke="#000000"
       stroke-width="2"
       id="ellipse3" />
  </g>
  <g
     transform="matrix(1.2094799,0,0,1.0281448,66.326465,39.648245)"
     id="g4">
    <rect
       width="6"
       height="40"
       stroke="#000000"
       stroke-width="2"
       id="rect4"
       x="0"
       y="0" />
    <ellipse
       cx="3"
       cy="-6"
       rx="3"
       ry="6"
       stroke="#000000"
       stroke-width="2"
       id="ellipse4" />
  </g>
  <g
     transform="matrix(1.2094799,0,0,1.0281448,80.840223,39.648245)"
     id="g5">
    <rect
       width="6"
       height="40"
       stroke="#000000"
       stroke-width="2"
       id="rect5"
       x="0"
       y="0" />
    <ellipse
       cx="3"
       cy="-6"
       rx="3"
       ry="6"
       stroke="#000000"
       stroke-width="2"
       id="ellipse5" />
  </g>
  <g
     transform="matrix(1.2094799,0,0,1.0281448,95.353982,39.648245)"
     id="g6">
    <rect
       width="6"
       height="40"
       stroke="#000000"
       stroke-width="2"
       id="rect6"
       x="0"
       y="0" />
    <ellipse
       cx="3"
       cy="-6"
       rx="3"
       ry="6"
       stroke="#000000"
       stroke-width="2"
       id="ellipse6" />
  </g>
  <g
     transform="matrix(1.2094799,0,0,1.0281448,134.05734,39.648245)"
     id="g7">
    <rect
       width="6"
       height="40"
       stroke="#000000"
       stroke-width="2"
       id="rect7"
       x="0"
       y="0" />
    <ellipse
       cx="3"
       cy="-6"
       rx="3"
       ry="6"
       stroke="#000000"
       stroke-width="2"
       id="ellipse7" />
  </g>
  <g
     transform="matrix(1.2094799,0,0,1.0281448,148.5711,39.648245)"
     id="g8">
    <rect
       width="6"
       height="40"
       stroke="#000000"
       stroke-width="2"
       id="rect8"
       x="0"
       y="0" />
    <ellipse
       cx="3"
       cy="-6"
       rx="3"
       ry="6"
       stroke="#000000"
       stroke-width="2"
       id="ellipse8" />
  </g>
  <g
     transform="matrix(1.2094799,0,0,1.0281448,163.08486,39.648245)"
     id="g9">
    <rect
       width="6"
       height="40"
       stroke="#000000"
       stroke-width="2"
       id="rect9"
       x="0"
       y="0" />
    <ellipse
       cx="3"
       cy="-6"
       rx="3"
       ry="6"
       stroke="#000000"
       stroke-width="2"
       id="ellipse9" />
  </g>
  <g
     transform="matrix(1.2094799,0,0,1.0281448,177.59862,39.648245)"
     id="g10">
    <rect
       width="6"
       height="40"
       stroke="#000000"
       stroke-width="2"
       id="rect10"
       x="0"
       y="0" />
    <ellipse
       cx="3"
       cy="-6"
       rx="3"
       ry="6"
       stroke="#000000"
       stroke-width="2"
       id="ellipse10" />
  </g>
  <g
     transform="matrix(1.2094799,0,0,1.0281448,192.11238,39.648245)"
     id="g11">
    <rect
       width="6"
       height="40"
       stroke="#000000"
       stroke-width="2"
       id="rect11"
       x="0"
       y="0" />
    <ellipse
       cx="3"
       cy="-6"
       rx="3"
       ry="6"
       stroke="#000000"
       stroke-width="2"
       id="ellipse11" />
  </g>
  <g
     transform="matrix(1.2094799,0,0,1.0281448,230.81573,39.648245)"
     id="g12">
    <rect
       width="6"
       height="40"
       stroke="#000000"
       stroke-width="2"
       id="rect12"
       x="0"
       y="0" />
    <ellipse
       cx="3"
       cy="-6"
       rx="3"
       ry="6"
       stroke="#000000"
       stroke-width="2"
       id="ellipse12" />
  </g>
  <g
     transform="matrix(1.2094799,0,0,1.0281448,245.32949,39.648245)"
     id="g13">
    <rect
       width="6"
       height="40"
       stroke="#000000"
       stroke-width="2"
       id="rect13"
       x="0"
       y="0" />
    <ellipse
       cx="3"
       cy="-6"
       rx="3"
       ry="6"
       stroke="#000000"
       stroke-width="2"
       id="ellipse13" />
  </g>
  <g
     transform="matrix(1.2094799,0,0,1.0281448,37.298947,101.33694)"
     id="g17">
    <rect
       width="6"
       height="40"
       stroke="#000000"
       stroke-width="2"
       id="rect17"
       x="0"
       y="0" />
    <ellipse
       cx="3"
       cy="-6"
       rx="3"
       ry="6"
       stroke="#000000"
       stroke-width="2"
       id="ellipse17" />
  </g>
  <g
     transform="matrix(1.2094799,0,0,1.0281448,51.812706,101.33694)"
     id="g18">
    <rect
       width="6"
       height="40"
       stroke="#000000"
       stroke-width="2"
       id="rect18"
       x="0"
       y="0" />
    <ellipse
       cx="3"
       cy="-6"
       rx="3"
       ry="6"
       stroke="#000000"
       stroke-width="2"
       id="ellipse18" />
  </g>
  <g
     transform="matrix(1.2094799,0,0,1.0281448,66.326465,101.33694)"
     id="g19">
    <rect
       width="6"
       height="40"
       stroke="#000000"
       stroke-width="2"
       id="rect19"
       x="0"
       y="0" />
    <ellipse
       cx="3"
       cy="-6"
       rx="3"
       ry="6"
       stroke="#000000"
       stroke-width="2"
       id="ellipse19" />
  </g>
  <g
     transform="matrix(1.2094799,0,0,1.0281448,80.840223,101.33694)"
     id="g20">
    <rect
       width="6"
       height="40"
       stroke="#000000"
       stroke-width="2"
       id="rect20"
       x="0"
       y="0" />
    <ellipse
       cx="3"
       cy="-6"
       rx="3"
       ry="6"
       stroke="#000000"
       stroke-width="2"
       id="ellipse20" />
  </g>
  <g
     transform="matrix(1.2094799,0,0,1.0281448,95.353982,101.33694)"
     id="g21">
    <rect
       width="6"
       height="40"
       stroke="#000000"
       stroke-width="2"
       id="rect21"
       x="0"
       y="0" />
    <ellipse
       cx="3"
       cy="-6"
       rx="3"
       ry="6"
       stroke="#000000"
       stroke-width="2"
       id="ellipse21" />
  </g>
  <g
     transform="matrix(1.2094799,0,0,1.0281448,134.05734,101.33694)"
     id="g22">
    <rect
       width="6"
       height="40"
       stroke="#000000"
       stroke-width="2"
       id="rect22"
       x="0"
       y="0" />
    <ellipse
       cx="3"
       cy="-6"
       rx="3"
       ry="6"
       stroke="#000000"
       stroke-width="2"
       id="ellipse22" />
  </g>
  <g
     transform="matrix(1.2094799,0,0,1.0281448,148.5711,101.33694)"
     id="g23">
    <rect
       width="6"
       height="40"
       stroke="#000000"
       stroke-width="2"
       id="rect23"
       x="0"
       y="0" />
    <ellipse
       cx="3"
       cy="-6"
       rx="3"
       ry="6"
       stroke="#000000"
       stroke-width="2"
       id="ellipse23" />
  </g>
  <g
     transform="matrix(1.2094799,0,0,1.0281448,163.08486,101.33694)"
     id="g24">
    <rect
       width="6"
       height="40"
       stroke="#000000"
       stroke-width="2"
       id="rect24"
       x="0"
       y="0" />
    <ellipse
       cx="3"
       cy="-6"
       rx="3"
       ry="6"
       stroke="#000000"
       stroke-width="2"
       id="ellipse24" />
  </g>
  <g
     transform="matrix(1.2094799,0,0,1.0281448,37.298947,163.02563)"
     id="g32">
    <rect
       width="6"
       height="40"
       stroke="#000000"
       stroke-width="2"
       id="rect32"
       x="0"
       y="0" />
    <ellipse
       cx="3"
       cy="-6"
       rx="3"
       ry="6"
       stroke="#000000"
       stroke-width="2"
       id="ellipse32" />
  </g>
  <g
     transform="matrix(1.2094799,0,0,1.0281448,51.812706,163.02563)"
     id="g33">
    <rect
       width="6"
       height="40"
       stroke="#000000"
       stroke-width="2"
       id="rect33"
       x="0"
       y="0" />
    <ellipse
       cx="3"
       cy="-6"
       rx="3"
       ry="6"
       stroke="#000000"
       stroke-width="2"
       id="ellipse33" />
  </g>
  <g
     transform="matrix(1.2094799,0,0,1.0281448,66.326465,163.02563)"
     id="g34">
    <rect
       width="6"
       height="40"
       stroke="#000000"
       stroke-width="2"
       id="rect34"
       x="0"
       y="0" />
    <ellipse
       cx="3"
       cy="-6"
       rx="3"
       ry="6"
       stroke="#000000"
       stroke-width="2"
       id="ellipse34" />
  </g>
  <g
     transform="matrix(1.2094799,0,0,1.0281448,80.840223,163.02563)"
     id="g35">
    <rect
       width="6"
       height="40"
       stroke="#000000"
       stroke-width="2"
       id="rect35"
       x="0"
       y="0" />
    <ellipse
       cx="3"
       cy="-6"
       rx="3"
       ry="6"
       stroke="#000000"
       stroke-width="2"
       id="ellipse35" />
  </g>
  <g
     transform="matrix(1.2094799,0,0,1.0281448,95.353982,163.02563)"
     id="g36">
    <rect
       width="6"
       height="40"
       stroke="#000000"
       stroke-width="2"
       id="rect36"
       x="0"
       y="0" />
    <ellipse
       cx="3"
       cy="-6"
       rx="3"
       ry="6"
       stroke="#000000"
       stroke-width="2"
       id="ellipse36" />
  </g>
  <g
     transform="matrix(1.2094799,0,0,1.0281448,134.05734,163.02563)"
     id="g37">
    <rect
       width="6"
       height="40"
       stroke="#000000"
       stroke-width="2"
       id="rect37"
       x="0"
       y="0" />
    <ellipse
       cx="3"
       cy="-6"
       rx="3"
       ry="6"
       stroke="#000000"
       stroke-width="2"
       id="ellipse37" />
  </g>
  <g
     transform="matrix(1.2094799,0,0,1.0281448,148.5711,163.02563)"
     id="g38">
    <rect
       width="6"
       height="40"
       stroke="#000000"
       stroke-width="2"
       id="rect38"
       x="0"
       y="0" />
    <ellipse
       cx="3"
       cy="-6"
       rx="3"
       ry="6"
       stroke="#000000"
       stroke-width="2"
       id="ellipse38" />
  </g>
  <g
     transform="matrix(1.2094799,0,0,1.0281448,163.08486,163.02563)"
     id="g39">
    <rect
       width="6"
       height="40"
       stroke="#000000"
       stroke-width="2"
       id="rect39"
       x="0"
       y="0" />
    <ellipse
       cx="3"
       cy="-6"
       rx="3"
       ry="6"
       stroke="#000000"
       stroke-width="2"
       id="ellipse39" />
  </g>
  <g
     transform="matrix(1.2094799,0,0,1.0281448,177.59862,163.02563)"
     id="g40">
    <rect
       width="6"
       height="40"
       stroke="#000000"
       stroke-width="2"
       id="rect40"
       x="0"
       y="0" />
    <ellipse
       cx="3"
       cy="-6"
       rx="3"
       ry="6"
       stroke="#000000"
       stroke-width="2"
       id="ellipse40" />
  </g>
  <g
     transform="matrix(1.2094799,0,0,1.0281448,192.11238,163.02563)"
     id="g41">
    <rect
       width="6"
       height="40"
       stroke="#000000"
       stroke-width="2"
       id="rect41"
       x="0"
       y="0" />
    <ellipse
       cx="3"
       cy="-6"
       rx="3"
       ry="6"
       stroke="#000000"
       stroke-width="2"
       id="ellipse41" />
  </g>
  <g
     transform="matrix(1.2094799,0,0,1.0281448,230.81573,163.02563)"
     id="g42">
    <rect
       width="6"
       height="40"
       stroke="#000000"
       stroke-width="2"
       id="rect42"
       x="0"
       y="0" />
    <ellipse
       cx="3"
       cy="-6"
       rx="3"
       ry="6"
       stroke="#000000"
       stroke-width="2"
       id="ellipse42" />
  </g>
  <g
     transform="matrix(1.2094799,0,0,1.0281448,245.32949,163.02563)"
     id="g43">
    <rect
       width="6"
       height="40"
       stroke="#000000"
       stroke-width="2"
       id="rect43"
       x="0"
       y="0" />
    <ellipse
       cx="3"
       cy="-6"
       rx="3"
       ry="6"
       stroke="#000000"
       stroke-width="2"
       id="ellipse43" />
  </g>
  <g
     transform="matrix(1.2094799,0,0,1.0281448,259.84325,163.02563)"
     id="g44">
    <rect
       width="6"
       height="40"
       stroke="#000000"
       stroke-width="2"
       id="rect44"
       x="0"
       y="0" />
    <ellipse
       cx="3"
       cy="-6"
       rx="3"
       ry="6"
       stroke="#000000"
       stroke-width="2"
       id="ellipse44" />
  </g>
  <g
     transform="matrix(1.2094799,0,0,1.0281448,274.35701,163.02563)"
     id="g45">
    <rect
       width="6"
       height="40"
       stroke="#000000"
       stroke-width="2"
       id="rect45"
       x="0"
       y="0" />
    <ellipse
       cx="3"
       cy="-6"
       rx="3"
       ry="6"
       stroke="#000000"
       stroke-width="2"
       id="ellipse45" />
  </g>
  <g
     transform="matrix(1.2094799,0,0,1.0281448,37.298947,224.71432)"
     id="g47">
    <rect
       width="6"
       height="40"
       stroke="#000000"
       stroke-width="2"
       id="rect47"
       x="0"
       y="0" />
    <ellipse
       cx="3"
       cy="-6"
       rx="3"
       ry="6"
       stroke="#000000"
       stroke-width="2"
       id="ellipse47" />
  </g>
  <g
     transform="matrix(1.2094799,0,0,1.0281448,51.812706,224.71432)"
     id="g48">
    <rect
       width="6"
       height="40"
       stroke="#000000"
       stroke-width="2"
       id="rect48"
       x="0"
       y="0" />
    <ellipse
       cx="3"
       cy="-6"
       rx="3"
       ry="6"
       stroke="#000000"
       stroke-width="2"
       id="ellipse48" />
  </g>
  <g
     transform="matrix(1.2094799,0,0,1.0281448,66.326465,224.71432)"
     id="g49">
    <rect
       width="6"
       height="40"
       stroke="#000000"
       stroke-width="2"
       id="rect49"
       x="0"
       y="0" />
    <ellipse
       cx="3"
       cy="-6"
       rx="3"
       ry="6"
       stroke="#000000"
       stroke-width="2"
       id="ellipse49" />
  </g>
  <g
     transform="matrix(1.2094799,0,0,1.0281448,80.840223,224.71432)"
     id="g50">
    <rect
       width="6"
       height="40"
       stroke="#000000"
       stroke-width="2"
       id="rect50"
       x="0"
       y="0" />
    <ellipse
       cx="3"
       cy="-6"
       rx="3"
       ry="6"
       stroke="#000000"
       stroke-width="2"
       id="ellipse50" />
  </g>
  <g
     transform="matrix(1.2094799,0,0,1.0281448,95.353982,224.71432)"
     id="g51">
    <rect
       width="6"
       height="40"
       stroke="#000000"
       stroke-width="2"
       id="rect51"
       x="0"
       y="0" />
    <ellipse
       cx="3"
       cy="-6"
       rx="3"
       ry="6"
       stroke="#000000"
       stroke-width="2"
       id="ellipse51" />
  </g>
  <g
     transform="matrix(1.2094799,0,0,1.0281448,134.05734,224.71432)"
     id="g52">
    <rect
       width="6"
       height="40"
       stroke="#000000"
       stroke-width="2"
       id="rect52"
       x="0"
       y="0" />
    <ellipse
       cx="3"
       cy="-6"
       rx="3"
       ry="6"
       stroke="#000000"
       stroke-width="2"
       id="ellipse52" />
  </g>
  <g
     transform="matrix(1.2094799,0,0,1.0281448,148.5711,224.71432)"
     id="g53">
    <rect
       width="6"
       height="40"
       stroke="#000000"
       stroke-width="2"
       id="rect53"
       x="0"
       y="0" />
    <ellipse
       cx="3"
       cy="-6"
       rx="3"
       ry="6"
       stroke="#000000"
       stroke-width="2"
       id="ellipse53" />
  </g>
  <g
     transform="matrix(1.2094799,0,0,1.0281448,163.08486,224.71432)"
     id="g54">
    <rect
       width="6"
       height="40"
       stroke="#000000"
       stroke-width="2"
       id="rect54"
       x="0"
       y="0" />
    <ellipse
       cx="3"
       cy="-6"
       rx="3"
       ry="6"
       stroke="#000000"
       stroke-width="2"
       id="ellipse54" />
  </g>
  <g
     transform="matrix(1.2094799,0,0,1.0281448,177.59862,224.71432)"
     id="g55">
    <rect
       width="6"
       height="40"
       stroke="#000000"
       stroke-width="2"
       id="rect55"
       x="0"
       y="0" />
    <ellipse
       cx="3"
       cy="-6"
       rx="3"
       ry="6"
       stroke="#000000"
       stroke-width="2"
       id="ellipse55" />
  </g>
  <g
     transform="matrix(1.2094799,0,0,1.0281448,37.298947,286.40301)"
     id="g62">
    <rect
       width="6"
       height="40"
       stroke="#000000"
       stroke-width="2"
       id="rect62"
       x="0"
       y="0" />
    <ellipse
       cx="3"
       cy="-6"
       rx="3"
       ry="6"
       stroke="#000000"
       stroke-width="2"
       id="ellipse62" />
  </g>
  <g
     transform="matrix(1.2094799,0,0,1.0281448,51.812706,286.40301)"
     id="g63">
    <rect
       width="6"
       height="40"
       stroke="#000000"
       stroke-width="2"
       id="rect63"
       x="0"
       y="0" />
    <ellipse
       cx="3"
       cy="-6"
       rx="3"
       ry="6"
       stroke="#000000"
       stroke-width="2"
       id="ellipse63" />
  </g>
  <g
     transform="matrix(1.2094799,0,0,1.0281448,66.326465,286.40301)"
     id="g64">
    <rect
       width="6"
       height="40"
       stroke="#000000"
       stroke-width="2"
       id="rect64"
       x="0"
       y="0" />
    <ellipse
       cx="3"
       cy="-6"
       rx="3"
       ry="6"
       stroke="#000000"
       stroke-width="2"
       id="ellipse64" />
  </g>
  <g
     transform="matrix(1.2094799,0,0,1.0281448,80.840223,286.40301)"
     id="g65">
    <rect
       width="6"
       height="40"
       stroke="#000000"
       stroke-width="2"
       id="rect65"
       x="0"
       y="0" />
    <ellipse
       cx="3"
       cy="-6"
       rx="3"
       ry="6"
       stroke="#000000"
       stroke-width="2"
       id="ellipse65" />
  </g>
  <g
     transform="matrix(1.2094799,0,0,1.0281448,95.353982,286.40301)"
     id="g66">
    <rect
       width="6"
       height="40"
       stroke="#000000"
       stroke-width="2"
       id="rect66"
       x="0"
       y="0" />
    <ellipse
       cx="3"
       cy="-6"
       rx="3"
       ry="6"
       stroke="#000000"
       stroke-width="2"
       id="ellipse66" />
  </g>
  <g
     transform="matrix(1.2094799,0,0,1.0281448,134.05734,286.40301)"
     id="g67">
    <rect
       width="6"
       height="40"
       stroke="#000000"
       stroke-width="2"
       id="rect67"
       x="0"
       y="0" />
    <ellipse
       cx="3"
       cy="-6"
       rx="3"
       ry="6"
       stroke="#000000"
       stroke-width="2"
       id="ellipse67" />
  </g>
  <g
     transform="matrix(1.2094799,0,0,1.0281448,148.5711,286.40301)"
     id="g68">
    <rect
       width="6"
       height="40"
       stroke="#000000"
       stroke-width="2"
       id="rect68"
       x="0"
       y="0" />
    <ellipse
       cx="3"
       cy="-6"
       rx="3"
       ry="6"
       stroke="#000000"
       stroke-width="2"
       id="ellipse68" />
  </g>
  <g
     transform="matrix(1.2094799,0,0,1.0281448,163.08486,286.40301)"
     id="g69">
    <rect
       width="6"
       height="40"
       stroke="#000000"
       stroke-width="2"
       id="rect69"
       x="0"
       y="0" />
    <ellipse
       cx="3"
       cy="-6"
       rx="3"
       ry="6"
       stroke="#000000"
       stroke-width="2"
       id="ellipse69" />
  </g>
  <g
     transform="matrix(1.2094799,0,0,1.0281448,177.59862,286.40301)"
     id="g70">
    <rect
       width="6"
       height="40"
       stroke="#000000"
       stroke-width="2"
       id="rect70"
       x="0"
       y="0" />
    <ellipse
       cx="3"
       cy="-6"
       rx="3"
       ry="6"
       stroke="#000000"
       stroke-width="2"
       id="ellipse70" />
  </g>
  <g
     transform="matrix(1.2094799,0,0,1.0281448,192.11238,286.40301)"
     id="g71">
    <rect
       width="6"
       height="40"
       stroke="#000000"
       stroke-width="2"
       id="rect71"
       x="0"
       y="0" />
    <ellipse
       cx="3"
       cy="-6"
       rx="3"
       ry="6"
       stroke="#000000"
       stroke-width="2"
       id="ellipse71" />
  </g>
  <g
     transform="matrix(1.2094799,0,0,1.0281448,230.81573,286.40301)"
     id="g72">
    <rect
       width="6"
       height="40"
       stroke="#000000"
       stroke-width="2"
       id="rect72"
       x="0"
       y="0" />
    <ellipse
       cx="3"
       cy="-6"
       rx="3"
       ry="6"
       stroke="#000000"
       stroke-width="2"
       id="ellipse72" />
  </g>
  <g
     transform="matrix(1.2094799,0,0,1.0281448,245.32949,286.40301)"
     id="g73">
    <rect
       width="6"
       height="40"
       stroke="#000000"
       stroke-width="2"
       id="rect73"
       x="0"
       y="0" />
    <ellipse
       cx="3"
       cy="-6"
       rx="3"
       ry="6"
       stroke="#000000"
       stroke-width="2"
       id="ellipse73" />
  </g>
  <g
     transform="matrix(1.2094799,0,0,1.0281448,259.84325,286.40301)"
     id="g74">
    <rect
       width="6"
       height="40"
       stroke="#000000"
       stroke-width="2"
       id="rect74"
       x="0"
       y="0" />
    <ellipse
       cx="3"
       cy="-6"
       rx="3"
       ry="6"
       stroke="#000000"
       stroke-width="2"
       id="ellipse74" />
  </g>
  <g
     transform="matrix(1.2094799,0,0,1.0281448,274.35701,286.40301)"
     id="g75">
    <rect
       width="6"
       height="40"
       stroke="#000000"
       stroke-width="2"
       id="rect75"
       x="0"
       y="0" />
    <ellipse
       cx="3"
       cy="-6"
       rx="3"
       ry="6"
       stroke="#000000"
       stroke-width="2"
       id="ellipse75" />
  </g>
  <g
     transform="matrix(1.2094799,0,0,1.0281448,288.87077,286.40301)"
     id="g76">
    <rect
       width="6"
       height="40"
       stroke="#000000"
       stroke-width="2"
       id="rect76"
       x="0"
       y="0" />
    <ellipse
       cx="3"
       cy="-6"
       rx="3"
       ry="6"
       stroke="#000000"
       stroke-width="2"
       id="ellipse76" />
  </g>
</svg>
